PathFileType	4	(X/Y/Z)	C:/Users/beibeiliu/ov580/test_trc/capture2\sequence.36_training_dense_right.trc
DataRate	CameraRate	NumFrames	NumMarkers	Units	OrigDataRate	OrigDataStartFrame	OrigNumFrames
120	120	22	19	mm	120	188	374
Frame#	Time	ThumbCMC			ThumbMCP			ThumbIP			ThumbTip			IndexMCP			IndexPIP			IndexTip			MiddleMCP			MiddlePIP			MiddleTip			RingMCP			RingPIP			RingTip			PinkyMCP			PinkyPIP			PinkyTip			BackHand1			BackHand2			BackHand3	
		X0	Y0	Z0	X1	Y1	Z1	X2	Y2	Z2	X3	Y3	Z3	X4	Y4	Z4	X5	Y5	Z5	X6	Y6	Z6	X7	Y7	Z7	X8	Y8	Z8	X9	Y9	Z9	X10	Y10	Z10	X11	Y11	Z11	X12	Y12	Z12	X13	Y13	Z13	X14	Y14	Z14	X15	Y15	Z15	X16	Y16	Z16	X17	Y17	Z17	X18	Y18	Z18	
187	1.55833	161.914	39.815	40.4154	156.599	49.6997	10.8034	157.18	55.8819	-15.0299	154.949	47.9567	-40.4105	169.918	19.1707	-33.004	144.057	32.3196	-53.359	119.826	37.4722	-32.6898	161.181	3.7267	-37.3594	132.288	17.6274	-50.4028	114.367	26.1427	-20.1341	149.643	-12.9234	-35.8833	125.888	0.22213	-43.8219	113.581	16.7673	-13.4756	138.787	-29.5622	-24.6461	115.486	-12.0859	-32.5556	109.683	8.91616	-7.69902	169.005	-23.0782	21.1656	168.291	-19.2861	48.6169	181.198	9.64722	30.7048	
188	1.56667	161.988	38.5778	40.5945	158.241	54.215	12.8886	160.799	53.5509	-16.9206	157.353	46.0405	-40.0927	171.924	20.9902	-35.208	145.568	28.5305	-52.3566	121.493	36.1801	-33.9719	162.486	4.57514	-40.137	134.517	10.4672	-51.7437	114.306	25.2862	-19.9671	151.949	-12.3134	-33.9031	124.888	-1.97406	-44.0997	112.786	14.0916	-14.0299	142.218	-26.3814	-21.307	119.254	-10.0613	-33.3488	113.062	10.1364	-7.46161	167.936	-21.7859	22.9302	169.463	-18.4524	48.1452	180.696	5.82756	35.7619	
189	1.575	164.04	42.1432	37.2192	160.515	52.6003	9.70241	162.464	54.9558	-19.6868	157.63	41.5922	-40.229	172.269	20.6457	-31.8702	147.281	29.8634	-53.5271	123.786	39.0492	-36.161	163.115	3.7892	-39.64	133.146	16.4772	-51.6616	114.27	26.7916	-24.3109	151.208	-12.51	-36.5489	126.281	0.847924	-43.7286	112.82	11.8696	-14.9799	140.919	-30.1973	-19.5977	120.558	-9.21126	-32.0674	114.138	6.48059	-8.55252	169.3	-23.0666	21.9803	168.915	-17.5376	50.8241	181.106	10.4082	34.0049	
190	1.58333	162.662	40.8447	41.0995	160.656	51.2651	10.3015	162.168	54.6128	-15.9984	158.715	40.3404	-41.378	172.879	21.096	-34.2999	148.823	28.1005	-53.6264	122.627	37.9736	-34.0358	163.748	2.30455	-36.2632	132.468	12.6171	-50.909	113.816	24.1059	-21.1283	151.002	-12.5724	-36.5031	126.659	-0.621386	-43.8985	114.269	14.3137	-12.7142	143.784	-26.6868	-19.0216	120.585	-11.3742	-33.1566	113.718	5.19985	-7.89764	168.255	-23.2388	19.2035	167.739	-17.859	52.8957	182.025	11.1312	33.8106	
191	1.59167	163.652	38.431	36.0968	158.696	49.938	13.9681	163.566	55.2458	-19.0536	159.613	45.3269	-39.254	170.187	17.5234	-36.4582	148.46	26.1928	-53.4126	124.087	37.495	-37.1553	160.905	1.60027	-41.0984	134.418	11.1066	-51.9806	115.151	25.5111	-22.7258	152.515	-16.0544	-33.0758	127.294	-0.533391	-44.287	115.924	15.2901	-16.324	141.918	-30.3683	-22.2872	117.543	-13.7904	-32.6335	116.368	7.71511	-7.74424	171.887	-20.28	20.218	167.914	-16.3905	50.9556	179.81	7.24598	30.5587	
192	1.6	164.373	39.8579	37.1209	160.082	54.0941	11.1251	163.307	51.7811	-17.0117	159.747	44.9209	-39.28	172.791	21.0948	-34.6769	149.67	22.7185	-52.7247	122.82	36.7875	-32.7523	161.848	0.607985	-39.9486	134.296	13.19	-50.6707	115.904	26.6102	-22.1669	152.188	-13.2203	-36.5522	125.665	-3.85798	-44.3399	117.036	16.6392	-15.1687	143.594	-26.1149	-23.2076	118.634	-12.1772	-33.1786	111.571	4.4238	-7.69324	169.524	-20.9363	20.2467	169.04	-16.653	47.5915	181.665	9.55095	35.5552	
193	1.60833	162.174	37.7206	40.5237	160.548	50.8794	8.69496	161.404	54.9106	-13.2986	160.133	44.4277	-39.795	173.517	19.2635	-31.5782	150.75	24.964	-53.4398	124.451	38.5195	-33.6763	162.529	2.81304	-39.7162	137.917	12.0831	-51.9095	118.254	25.377	-23.4661	153.373	-16.4934	-31.4821	127.222	0.0292607	-43.3343	116.434	15.8534	-14.1131	141.354	-31.9658	-19.9247	117.219	-12.7663	-32.1089	113.019	4.54348	-5.23038	170.673	-25.0312	17.9031	167.923	-21.8136	52.001	181.19	8.01004	36.1153	
194	1.61667	163.436	40.1294	39.0684	159.854	52.0124	10.1213	162.797	54.2925	-16.8234	159.37	43.5883	-38.1198	171.408	16.2717	-35.4475	148.444	25.1728	-53.4507	123.579	32.6045	-34.4197	161.941	-0.290177	-41.0177	133.592	9.15674	-50.56	117.346	23.3482	-21.2047	152.207	-16.0782	-33.4472	126.159	-4.57965	-43.3431	114.093	11.1314	-16.1027	143.475	-27.1569	-23.5701	119.035	-16.9704	-32.651	114.882	5.14569	-10.8832	169.868	-22.0256	17.8235	169.59	-20.592	50.1023	182.864	8.35067	32.7198	
195	1.625	163.896	36.6644	36.6945	159.476	47.9689	9.03694	160.674	51.8044	-14.5511	158.234	39.667	-37.4353	171.249	17.1402	-35.6669	148.873	26.1146	-53.9994	124.189	39.2105	-32.6155	163.867	2.68456	-40.3066	134.853	11.8723	-50.611	117.171	20.1878	-21.4517	150.921	-17.5394	-34.4039	126.772	-5.04403	-43.9366	115.723	12.4012	-15.5847	143.075	-29.7492	-23.6519	118.409	-17.43	-32.7278	116.275	7.53393	-8.86138	170.024	-19.3159	21.1753	167.623	-20.0492	49.8351	180.673	6.96882	34.182	
196	1.63333	163.161	37.7045	37.8677	159.452	48.036	9.06985	160.349	50.8404	-15.0957	158.897	43.6532	-39.6562	172.557	17.9047	-37.0115	149.104	25.5767	-53.2212	124.773	38.3872	-33.9314	162.21	1.37425	-41.2153	133.627	11.2996	-50.7209	119.04	23.1586	-17.0108	153.821	-14.9758	-34.2267	125.021	-4.7192	-43.9714	115.141	10.9957	-15.1053	144.34	-27.29	-21.5895	118.328	-13.2023	-32.3476	110.529	4.44807	-9.21458	170.486	-25.5739	18.4962	166.42	-20.9371	52.6058	180.409	6.10895	32.7621	
197	1.64167	162.735	38.0466	39.2091	160.301	50.1361	7.76639	161.983	52.8856	-17.4023	157.028	43.8026	-36.9775	172.228	18.0983	-34.3808	146.151	26.0918	-52.6585	124.628	33.8747	-33.3564	164.934	2.70029	-37.315	137.158	11.7397	-51.9214	120.227	22.4636	-15.5387	153.751	-13.1236	-33.9473	124.273	-2.77922	-42.4496	117.196	13.8018	-16.7107	142.953	-31.7999	-20.5962	119.409	-12.7402	-32.836	116.341	4.95286	-9.93388	169.313	-22.1329	17.8699	168.03	-16.909	52.6847	183.764	9.18059	32.7378	
198	1.65	162.829	36.2437	38.8102	157.385	48.2723	13.6031	160.401	52.4653	-15.5454	157.878	45.1319	-41.9947	174.388	19.1034	-32.6501	146.623	24.3088	-52.3051	124.278	38.9283	-30.7522	161.487	-1.46537	-38.7255	134.879	15.1498	-49.7954	120.771	24.4631	-16.5713	151.735	-16.0343	-32.6676	124.351	-0.632024	-42.2996	118.611	13.6102	-16.5025	142.99	-30.1273	-22.6246	118.25	-13.2734	-31.8103	113.999	3.90498	-8.62104	169.11	-22.4982	20.5022	170.541	-18.6427	47.8592	181.135	5.7195	33.9396	
199	1.65833	163.763	35.4584	34.909	158.854	49.9161	7.51618	159.893	49.7931	-18.2518	156.394	43.4733	-39.6788	170.631	16.3872	-36.0949	150.157	26.8169	-53.9125	125.363	35.0313	-32.8896	161.729	0.364221	-40.3574	135.798	13.2994	-50.1071	121.747	20.5866	-13.6879	151.321	-15.9198	-33.7298	126.22	0.80225	-42.3066	118.71	11.9225	-10.6071	142.559	-31.3781	-20.7081	118.355	-12.2708	-32.1422	116.691	4.69749	-6.8032	169.321	-25.3133	17.0113	168.879	-19.7246	50.6787	184.66	9.37358	32.9506	
200	1.66667	162.559	36.1952	36.9161	156.413	49.1625	12.442	159.262	51.117	-18.155	156.697	45.5395	-40.2827	172.902	19.2633	-34.57	147.111	26.2817	-53.1122	125.779	35.5313	-30.9942	160.021	-0.0167762	-40.7963	133.22	11.0129	-49.3582	120.839	20.2615	-14.4149	150.686	-16.5344	-35.2671	122.835	-1.82914	-40.3545	118.661	10.4319	-7.7336	142.128	-32.3886	-22.5603	119.545	-11.2248	-31.9132	116.686	4.67563	-4.97509	172.733	-21.048	17.7611	168.068	-22.1996	51.9739	182.892	6.23523	31.6983	
201	1.675	162.748	38.6465	39.2745	157.834	50.2694	8.90471	158.928	52.824	-14.4899	156.665	45.5806	-40.0395	172.901	20.2022	-34.2474	145.841	25.8813	-52.9488	126.002	36.5942	-30.234	160.059	-0.0441058	-39.8442	133.983	15.8491	-49.9834	121.979	22.6876	-12.1451	150.776	-16.953	-33.5388	122.953	-4.20962	-42.1356	118.919	13.1993	-11.377	142.821	-30.2895	-21.9655	118.779	-14.8159	-33.4733	117.333	2.93943	-4.66085	169.601	-25.2276	17.0506	170.589	-19.7624	47.8891	181.482	10.2989	33.4553	
202	1.68333	162.153	37.0693	35.6442	155.652	49.0167	10.499	158.914	52.5534	-18.123	156.41	41.0081	-40.0568	172.369	21.4419	-38.4281	145.679	26.8713	-52.4742	125.64	35.3623	-27.5419	162.519	3.8764	-38.176	131.657	13.5323	-49.033	122.335	23.9326	-16.6017	152.042	-12.4358	-36.3192	122.651	-0.484732	-40.9452	117.806	10.9896	-11.796	142.3	-30.572	-24.5464	120.609	-12.0568	-33.5013	115.987	2.50493	-3.66005	172.093	-24.1134	19.2922	167.723	-22.2754	46.8934	181.49	8.20624	31.8097	
203	1.69167	163.906	39.72	34.0887	156.842	51.2485	9.88981	158.305	50.6004	-18.1731	156.532	42.5396	-42.2514	170.661	20.7195	-38.9458	146.257	28.9011	-53.5725	126.608	39.3662	-24.6916	160.121	2.40335	-42.9498	132.51	13.6676	-49.049	122.104	20.2049	-13.5453	150.217	-15.6009	-36.4325	122.229	1.06178	-40.6635	119.294	9.54305	-8.22289	142.72	-27.9795	-27.694	120.624	-10.469	-31.9875	117.513	2.19976	-5.36768	171.844	-23.5112	17.0504	167.934	-24.1017	50.3659	183.92	7.80027	29.5344	
204	1.7	161.098	37.3045	37.1168	155.538	46.8809	9.40841	158.948	52.3499	-17.6551	156.274	44.6351	-39.932	169.628	17.0155	-39.2549	144.294	28.9548	-51.9335	126.614	35.3793	-21.6698	159.436	0.344357	-41.7089	131.05	10.613	-48.4372	122.6	22.8507	-14.0645	149.98	-13.5752	-39.0421	120.393	-1.20896	-39.613	121.167	12.1149	-9.03107	143.017	-28.9978	-25.1307	117.426	-13.7875	-31.2689	118.39	1.97765	-5.30609	169.105	-23.2949	17.5503	168.007	-22.6913	46.8348	181.789	7.32796	30.7251	
205	1.70833	161.445	37.3102	35.1376	156.609	51.8265	11.0172	158.401	53.0699	-16.5083	156.653	42.6341	-40.1162	168.715	18.0342	-38.9958	142.967	28.8234	-50.7901	126.711	35.5576	-26.671	160.588	-0.239916	-38.5227	132.484	10.5078	-48.9588	122.931	20.4151	-11.1057	149.208	-16.5385	-38.9603	124.273	-1.00701	-42.32	121.121	11.9093	-11.7498	144.292	-28.2765	-22.368	120.062	-13.6673	-33.9177	119.41	3.41999	-5.15894	170.546	-26.3239	16.636	169.844	-19.5005	48.7697	182.581	5.7981	29.9265	
206	1.71667	162.915	37.4957	34.3644	155.954	49.5872	7.53007	157.788	53.1091	-20.5193	155.991	44.783	-42.0889	169.312	17.1274	-38.4289	145.113	27.613	-51.4143	126.682	35.3519	-23.9749	162.455	-0.144886	-38.4815	132.46	9.47077	-50.368	122.433	21.9198	-14.786	151.374	-16.742	-34.886	121.672	-0.808516	-40.3156	120.101	9.9629	-7.50188	144.527	-29.3475	-23.093	122.247	-11.7655	-34.961	118.065	2.5801	-8.51525	171.81	-21.5615	16.811	168.046	-21.8573	45.7209	180.67	5.81632	29.1589	
207	1.725	160.935	38.0697	36.7045	153.715	46.9604	7.89413	155.977	54.6862	-19.7487	153.306	47.8824	-41.4228	170.505	19.4998	-38.4106	144.1	25.7023	-52.1506	126.813	35.334	-27.8131	160.109	1.77657	-42.7011	133.479	10.0879	-50.8946	122.877	23.7102	-15.2184	151.655	-16.0752	-33.7353	121.935	-0.455414	-40.4571	117.804	10.479	-12.3493	145.121	-29.1855	-21.6506	119.74	-15.8554	-35.3408	117.317	2.93062	-11.2519	172.219	-22.2209	17.7288	168.902	-22.866	50.3399	182.566	6.69037	32.4894	
208	1.73333	161.094	39.0349	35.163	151.098	50.1677	9.92987	152.555	53.2179	-19.1478	151.593	48.3971	-44.5791	172.165	20.1401	-36.1513	148.497	27.1239	-53.8998	124.988	38.3227	-25.7341	161.605	3.0327	-41.738	132.855	9.59127	-50.8795	120.869	21.3924	-17.0716	153.379	-13.8088	-34.5207	127.88	-2.33303	-44.3548	117.551	11.0076	-13.4661	145.211	-29.0061	-25.8653	121.97	-19.6358	-37.2511	115.863	2.70604	-14.2709	170.918	-19.9094	18.1422	170.739	-20.3264	46.8505	182.239	6.3727	28.3218	
